<svg xmlns="http://www.w3.org/2000/svg" viewBox="0 0 160 160">
  <defs><linearGradient id="g" x1="0" x2="1"><stop stop-color="#16bff1"/><stop offset="1" stop-color="#2d7cf0"/></linearGradient></defs>
  <path d="M80 8 139 31v43c0 38-24 66-59 78C45 140 21 112 21 74V31z" fill="#082f51"/>
  <path d="M39 91h10l9-25c3-8 10-13 19-13h17c9 0 15 5 19 13l8 25h7v20h-13v-8H48v8H35V98c0-4 1-6 4-7Z" fill="url(#g)"/>
  <path d="M61 69h46l7 20H54z" fill="#e8f6ff"/><circle cx="58" cy="101" r="9" fill="#fff"/><circle cx="107" cy="101" r="9" fill="#fff"/>
  <path d="M79 31a26 26 0 0 1 26 18H95a17 17 0 0 0-32 0H53a26 26 0 0 1 26-18Z" fill="#fff"/><path d="m80 47 15-8-10 15Z" fill="#16bff1"/>
</svg>
